<svg xmlns="http://www.w3.org/2000/svg" viewBox="0 0 2654.19 481.25"><defs><style>.cls-1{fill:#001033;}</style></defs><title>kicks logo</title><g id="Layer_2" data-name="Layer 2"><g id="Layer_1-2" data-name="Layer 1"><path class="cls-1" d="M185.28,32.45A52,52,0,0,1,233.83,0H348.24l-75.9,184.8.56,1.1L459.29,12.1Q472.69,0,490,0H674.71L376.14,278.3q2.22,3.3,18.42,25.3,6.7,9.9,17.58,24.48t26.23,36q15.34,21.45,36.55,50.32t48.55,66.83H354.38l-130-180.4L164.63,447.7a51.67,51.67,0,0,1-19.81,24.47,53.81,53.81,0,0,1-30.42,9.08H0Z"/><path class="cls-1" d="M718.8,72a112,112,0,0,1,43-52.52A116.07,116.07,0,0,1,827.06,0H898.5L730,409.2a112,112,0,0,1-43,52.53q-29.59,19.53-65.85,19.53H549.7Z"/><path class="cls-1" d="M766.23,481.25q14.52-35.75,26.51-64.9t27.35-66.28q15.36-37.12,31.53-76.17t31.53-76.18q15.34-37.12,27.34-66.55T937.56,66A115.68,115.68,0,0,1,1042.48,0h447l-27.9,67.1a112.36,112.36,0,0,1-43,52,116,116,0,0,1-65.3,19.52H1074.84q-19,0-26.79,17.6L971,342.65h376.14l-27.35,66.55a112,112,0,0,1-43,52.53,116,116,0,0,1-65.29,19.53Z"/><path class="cls-1" d="M1558.14,32.45A52,52,0,0,1,1606.69,0h114.41l-75.9,184.8.56,1.1,186.4-173.8Q1845.54,0,1862.84,0h184.72L1749,278.3q2.22,3.3,18.42,25.3,6.7,9.9,17.58,24.48t26.23,36q15.34,21.45,36.55,50.32t48.55,66.83h-169.1l-130-180.4L1537.49,447.7a51.68,51.68,0,0,1-19.81,24.47,53.82,53.82,0,0,1-30.42,9.08h-114.4Z"/><path class="cls-1" d="M1974.46,375.65a52.1,52.1,0,0,1,19.81-23.93,52.88,52.88,0,0,1,29.86-9.07h339.31l18.42-45.1h-375L2100,71A116.48,116.48,0,0,1,2117.6,41.8a112.47,112.47,0,0,1,25.11-22.55A117.47,117.47,0,0,1,2207.18,0h447l-43.53,105.6a52.09,52.09,0,0,1-19.81,23.92A52.92,52.92,0,0,1,2561,138.6H2221.69l-18.42,45.1h375l-65.29,159-27.9,66.55a116,116,0,0,1-43.25,52.53,114.71,114.71,0,0,1-65,19.53h-445.9Z"/></g></g></svg>